<?xml version="1.0" encoding="iso-8859-1"?>
<!-- Uploaded to: SVG Repo, www.svgrepo.com, Generator: SVG Repo Mixer Tools -->
<svg fill="#000000" height="800px" width="800px" version="1.1" id="Layer_1" xmlns="http://www.w3.org/2000/svg" xmlns:xlink="http://www.w3.org/1999/xlink" 
	 viewBox="0 0 511.999 511.999" xml:space="preserve">
<g>
	<g>
		<path d="M509.494,497.433l-63.478-63.478c-1.664-1.664-4.369-1.664-6.033,0l-7.279,7.279c-1.664,1.664-3.849,2.5-6.033,2.5
			c-2.185,0-4.369-0.836-6.033-2.5c-3.336-3.336-3.336-8.729,0-12.066l7.279-7.279c1.664-1.664,1.664-4.369,0-6.033l-16.034-16.034
			c-1.664-1.664-4.369-1.664-6.033,0l-15.812,15.812c-1.664,1.664-3.848,2.5-6.033,2.5s-4.369-0.836-6.033-2.5
			c-3.336-3.336-3.336-8.729,0-12.066l15.812-15.812c1.664-1.664,1.664-4.369,0-6.033l-16.034-16.034
			c-1.664-1.664-4.369-1.664-6.033,0l-7.279,7.279c-1.664,1.664-3.848,2.5-6.033,2.5s-4.369-0.836-6.033-2.5
			c-3.336-3.336-3.336-8.729,0-12.066l7.279-7.279c1.664-1.664,1.664-4.369,0-6.033l-16.034-16.034
			c-1.664-1.664-4.369-1.664-6.033,0l-15.812,15.812c-1.664,1.664-3.849,2.5-6.033,2.5c-2.185,0-4.369-0.836-6.033-2.5
			c-3.336-3.336-3.336-8.729,0-12.066l15.812-15.812c1.664-1.664,1.664-4.369,0-6.033l-16.034-16.034
			c-1.664-1.664-4.369-1.664-6.033,0l-7.279,7.279c-1.664,1.664-3.848,2.5-6.033,2.5s-4.369-0.836-6.033-2.5
			c-3.336-3.336-3.336-8.729,0-12.066l7.279-7.279c1.664-1.664,1.664-4.369,0-6.033l-16.034-16.034
			c-1.664-1.664-4.369-1.664-6.033,0l-15.812,15.812c-1.664,1.664-3.848,2.5-6.033,2.5s-4.369-0.836-6.033-2.5
			c-3.336-3.336-3.336-8.729,0-12.066l15.812-15.812c1.664-1.664,1.664-4.369,0-6.033l-16.034-16.034
			c-1.664-1.664-4.369-1.664-6.033,0l-7.279,7.279c-1.664,1.664-3.849,2.5-6.033,2.5c-2.185,0-4.369-0.836-6.033-2.5
			c-3.336-3.336-3.336-8.729,0-12.066l7.279-7.279c1.664-1.664,1.664-4.369,0-6.033l-16.034-16.034
			c-1.664-1.664-4.369-1.664-6.033,0l-15.812,15.812c-1.664,1.664-3.848,2.5-6.033,2.5s-4.369-0.836-6.033-2.5
			c-3.336-3.336-3.336-8.729,0-12.066l15.812-15.812c1.664-1.664,1.664-4.369,0-6.033l-16.034-16.034
			c-1.664-1.664-4.369-1.664-6.033,0l-7.279,7.279c-1.664,1.664-3.849,2.5-6.033,2.5c-2.185,0-4.369-0.836-6.033-2.5
			c-3.336-3.336-3.336-8.729,0-12.066l7.279-7.279c1.664-1.664,1.664-4.369,0-6.033l-16.034-16.034
			c-1.664-1.664-4.369-1.664-6.033,0l-15.812,15.812c-1.664,1.664-3.849,2.5-6.033,2.5c-2.185,0-4.369-0.836-6.033-2.5
			c-3.336-3.336-3.336-8.729,0-12.066l15.812-15.812c1.664-1.664,1.664-4.369,0-6.033l-16.034-16.034
			c-1.664-1.664-4.369-1.664-6.033,0l-7.279,7.279c-1.664,1.664-3.849,2.5-6.033,2.5c-2.184,0-4.369-0.836-6.033-2.5
			c-3.336-3.336-3.336-8.729,0-12.066l7.279-7.279c1.664-1.664,1.664-4.369,0-6.033l-72.02-72.02
			C12.12,0.058,8.468-0.675,5.268,0.656C2.085,1.97,0.003,5.085,0.003,8.54v494.925c0,4.71,3.823,8.533,8.533,8.533h494.925
			c3.447,0,6.562-2.074,7.885-5.265S511.935,499.873,509.494,497.433z M349.744,439.006c-1.323,3.183-4.437,5.256-7.876,5.256
			h-0.009l-265.075-0.529c-4.71-0.008-8.516-3.831-8.516-8.533V170.671c0-3.447,2.082-6.571,5.265-7.885
			c3.2-1.34,6.861-0.597,9.301,1.852l265.067,265.058C350.342,432.137,351.067,435.814,349.744,439.006z"/>
	</g>
</g>
</svg>